<svg xmlns="http://www.w3.org/2000/svg" viewBox="1840 2952.873 31.996 31.211"><defs><style>.a{fill:#696e85;}</style></defs><path class="a" d="M16,0a16.018,16.018,0,0,0-5.1,31.2c.8.1,1.1-.3,1.1-.8v-3c-4.5,1-5.4-1.9-5.4-1.9a4.109,4.109,0,0,0-1.8-2.3c-1.5-1,.1-1,.1-1a3.485,3.485,0,0,1,2.5,1.6c1.4,2.4,3.7,1.7,4.7,1.3a3.452,3.452,0,0,1,1-2.1c-3.6-.4-7.3-1.8-7.3-7.9a6.327,6.327,0,0,1,1.6-4.3,5.417,5.417,0,0,1,.2-4.2S8.9,6.2,12,8.2a13.307,13.307,0,0,1,4-.5,17.522,17.522,0,0,1,4,.5c3.1-2.1,4.4-1.6,4.4-1.6a5.965,5.965,0,0,1,.2,4.2,6.146,6.146,0,0,1,1.6,4.3c0,6.1-3.7,7.5-7.3,7.9A3.819,3.819,0,0,1,20,26v4.4c0,.4.3.9,1.1.8A16.018,16.018,0,0,0,16,0Z" transform="translate(1840 2952.873)"/></svg>