<svg xmlns="http://www.w3.org/2000/svg" viewBox="135.197 -415.661 104.775 66.097"><defs><style>.a{fill:#383d53;}.b{fill:#0f7c5a;}.c{fill:#37b87e;}</style></defs><g transform="translate(135.197 -415.661)"><path class="a" d="M52.5,143.749h2.823v-23.4L52.5,115Z" transform="translate(-35.465 -77.685)"/><path class="a" d="M117.59,43.076,138.649,3.1h-3.212L116,40.123Z" transform="translate(-78.36 -2.094)"/><path class="a" d="M34.9,121.389h2.823v-34.2L34.9,81.9Z" transform="translate(-23.576 -55.325)"/><path class="a" d="M17.6,98.894h2.823V53.954L17.6,48.6Z" transform="translate(-11.889 -32.83)"/><path class="a" d="M125.2,3.1h-3.212L105.6,33.958l1.687,2.953Z" transform="translate(-71.335 -2.094)"/><path class="a" d="M147.323,113.9l-2.823,5.386V140.41h2.823Z" transform="translate(-97.613 -76.942)"/><path class="a" d="M0,3.1V68.158H2.888V8.486l22.454,42.7h3.245L3.212,3.1Z" transform="translate(0 -2.094)"/><path class="a" d="M182.223,82.661a22.827,22.827,0,0,1-1.622-3.342,23.8,23.8,0,0,1-1.2-5.419v29.106h2.823Z" transform="translate(-121.188 -49.921)"/><path class="a" d="M164.623,112.724V80.6L161.8,85.24v29.982h.1v-2.5Z" transform="translate(-109.299 -54.447)"/><path class="a" d="M19.8,3.1,45.109,51.188h3.212L23.045,3.1Z" transform="translate(-13.375 -2.094)"/><path class="a" d="M90.676,8.616A15.019,15.019,0,0,1,93.5,6.28V3.1H90.287L66.6,48.17,42.847,3.1H39.7L64.912,51.188h3.212L90.676,8.454v.162Z" transform="translate(-26.818 -2.094)"/><path class="a" d="M199.623,123.17v-8.6A13.974,13.974,0,0,1,196.8,112.3v10.87Z" transform="translate(-132.942 -75.861)"/><path class="a" d="M199.623,80.763V76.8a16.365,16.365,0,0,1-2.823-9.6V77.648A11.675,11.675,0,0,0,199.623,80.763Z" transform="translate(-132.942 -45.395)"/><path class="a" d="M196.8,26.015V37.307a14.881,14.881,0,0,1,2.823-9.053V22.9a4.46,4.46,0,0,0-.617.552A23.1,23.1,0,0,0,196.8,26.015Z" transform="translate(-132.942 -15.469)"/><rect class="b" width="2.823" height="2.628" transform="translate(46.887 63.468)"/><rect class="b" width="2.758" height="2.466" transform="translate(52.598 58.277)"/><path class="c" d="M209.232,25.262c2.758-2.4,6.652-3.634,11.681-3.634a33.976,33.976,0,0,1,9.67,1.33,20.271,20.271,0,0,1,7.431,3.764L240.09,25.1a23.164,23.164,0,0,0-8.372-4.478A34.773,34.773,0,0,0,220.913,19c-5.776,0-10.254,1.46-13.466,4.413a14.9,14.9,0,0,0-1.947,2.142v6.295A11.82,11.82,0,0,1,209.232,25.262Z" transform="translate(-138.819 -12.835)"/><path class="c" d="M195.076,84.677c2.758,2.953,6.652,4.413,11.616,4.413h3.894c2.823,0,4.9.746,6.165,2.142a8.516,8.516,0,0,1,1.882,5.646,7.283,7.283,0,0,1-2.563,5.711c-1.687,1.4-4.348,2.142-7.982,2.142H188.1v2.628h19.988c4.348,0,7.658-1.006,9.864-2.888a9.785,9.785,0,0,0,3.212-7.593,10.668,10.668,0,0,0-2.628-7.431c-1.752-1.947-4.413-2.953-7.917-2.953H206.66c-4.283,0-7.528-1.2-9.8-3.7a11.876,11.876,0,0,1-3.147-6.295v6.587C194.135,83.606,194.59,84.158,195.076,84.677Z" transform="translate(-127.065 -51.677)"/><rect class="b" width="2.823" height="2.628" transform="translate(58.212 53.053)"/><path class="b" d="M199.623,57.958V51.371a14.937,14.937,0,0,1-.26-3.018,12.832,12.832,0,0,1,.26-2.758V39.3a14.881,14.881,0,0,0-2.823,9.053A16.365,16.365,0,0,0,199.623,57.958Z" transform="translate(-132.942 -26.548)"/><path class="c" d="M217.9,115.817h3.894c1.071,0,1.817.195,2.142.681a2.913,2.913,0,0,1,.617,1.882,2.113,2.113,0,0,1-1.071,1.947c-.681.454-2.077.681-4.153.681H205.5v2.628h13.79c5.159,0,7.788-1.752,7.788-5.224a5.694,5.694,0,0,0-1.2-3.764c-.811-.941-2.142-1.4-4.024-1.4H217.9a20.166,20.166,0,0,1-10.059-2.466A18.775,18.775,0,0,1,205.5,109.1v3.342a18.106,18.106,0,0,0,3.342,1.752A23.684,23.684,0,0,0,217.9,115.817Z" transform="translate(-138.819 -73.699)"/><path class="c" d="M190.369,88.305a3,3,0,0,0,.454.454V84.606a8.59,8.59,0,0,1-1.136-1.817A20.974,20.974,0,0,1,188,77.5v7.593A21.617,21.617,0,0,0,190.369,88.305Z" transform="translate(-126.998 -52.353)"/><path class="b" d="M182.223,64.827V57.234a24.874,24.874,0,0,1-.324-3.894,23.392,23.392,0,0,1,.324-3.7V47.5L179.4,51.783V56a24.8,24.8,0,0,0,1.2,5.419A20.763,20.763,0,0,0,182.223,64.827Z" transform="translate(-121.188 -32.087)"/><path class="b" d="M199.623,105.925v-3.342A12.678,12.678,0,0,1,196.8,99.5v4.153A13.974,13.974,0,0,0,199.623,105.925Z" transform="translate(-132.942 -67.214)"/><rect class="b" width="2.823" height="2.628" transform="translate(63.858 47.309)"/><path class="c" d="M205.432,7.431a17.745,17.745,0,0,1,5.97-3.342,25.245,25.245,0,0,1,8.923-1.46A36.441,36.441,0,0,1,232.2,4.51,25.408,25.408,0,0,1,241.45,9.6l2.077-1.558A28,28,0,0,0,233.4,2.142,39.807,39.807,0,0,0,220.294,0a31.646,31.646,0,0,0-8.242,1.071,23.254,23.254,0,0,0-6.587,3.018.064.064,0,0,0-.065.065V7.431Z" transform="translate(-138.752)"/><path class="b" d="M196.8,15.1v4.024a27.126,27.126,0,0,1,2.206-2.563,4.988,4.988,0,0,1,.617-.552V12.7A18.379,18.379,0,0,0,196.8,15.1Z" transform="translate(-132.942 -8.579)"/><path class="c" d="M202.746,65.05a17.461,17.461,0,0,0-6.425-4.478,22.117,22.117,0,0,0-8.858-1.687H183.05a2.8,2.8,0,0,1-2.142-.681,2.974,2.974,0,0,1-.617-1.947,2.182,2.182,0,0,1,1.071-1.947,9.483,9.483,0,0,1,4.153-.681c4.283,0,7.236.389,8.923,1.136l2.077-1.558c-2.4-1.46-6.1-2.206-11-2.206-5.159,0-7.788,1.752-7.788,5.224a5.607,5.607,0,0,0,1.265,3.764c.811,1.006,2.142,1.46,4.024,1.46h4.348a18.71,18.71,0,0,1,9.8,2.466,16.16,16.16,0,0,1,6.165,6.652,20.171,20.171,0,0,1,2.012,9.053,17.8,17.8,0,0,1-1.4,7.106,17.457,17.457,0,0,1-3.959,5.776A18.227,18.227,0,0,1,193.4,96.46a27.209,27.209,0,0,1-8.988,1.4H153.1v2.628h31.312a29.108,29.108,0,0,0,8.242-1.071,21.907,21.907,0,0,0,6.652-2.953,20.6,20.6,0,0,0,4.7-4.478,19.933,19.933,0,0,0,2.953-5.711,21.154,21.154,0,0,0,1.006-6.652,23.956,23.956,0,0,0-1.33-7.982A22.092,22.092,0,0,0,202.746,65.05Z" transform="translate(-103.422 -34.451)"/><path class="c" d="M183.545,39.87c1.687-1.46,4.348-2.142,7.982-2.142,5.646,0,9.994,1.006,13.012,3.083l2.077-1.622a18.118,18.118,0,0,0-6.522-3.018,31.7,31.7,0,0,0-8.6-1.071c-4.348,0-7.593.941-9.8,2.888a9.491,9.491,0,0,0-3.277,7.528,10.554,10.554,0,0,0,2.693,7.528c1.752,1.947,4.348,2.888,7.917,2.888h4.121c4.153,0,7.366,1.265,9.67,3.7a13.486,13.486,0,0,1,3.342,9.313,11.991,11.991,0,0,1-4.024,9.377c-2.693,2.4-6.587,3.7-11.681,3.7h-25.7v2.466H162v.065h28.424c5.776,0,10.318-1.46,13.466-4.413a14.516,14.516,0,0,0,4.835-11.195,15.883,15.883,0,0,0-4.153-11.13c-2.758-2.953-6.587-4.413-11.454-4.413h-4.088c-2.823,0-4.9-.746-6.1-2.142a8.362,8.362,0,0,1-1.882-5.711A7.333,7.333,0,0,1,183.545,39.87Z" transform="translate(-109.434 -23.711)"/></g></svg>